<svg xmlns="http://www.w3.org/2000/svg" viewBox="0 0 200 200" width="200" height="200">
  <!-- Root node -->
  <circle cx="100" cy="30" r="12" fill="#4A90E2" stroke="#fff" stroke-width="2"/>
  <text x="100" y="34" font-size="10" text-anchor="middle" fill="#fff">Start</text>
  <!-- Branches -->
  <line x1="100" y1="42" x2="50" y2="70" stroke="#4A90E2" stroke-width="2"/>
  <line x1="100" y1="42" x2="150" y2="70" stroke="#4A90E2" stroke-width="2"/>
  <line x1="50" y1="82" x2="30" y2="120" stroke="#4A90E2" stroke-width="2"/>
  <line x1="50" y1="82" x2="70" y2="120" stroke="#4A90E2" stroke-width="2"/>
  <line x1="150" y1="82" x2="130" y2="120" stroke="#4A90E2" stroke-width="2"/>
  <line x1="150" y1="82" x2="170" y2="120" stroke="#4A90E2" stroke-width="2"/>
  <!-- Event Nodes -->
  <circle cx="50" cy="70" r="12" fill="#50E3C2" stroke="#fff" stroke-width="2"/>
  <text x="50" y="74" font-size="10" text-anchor="middle" fill="#fff">1</text>
  <circle cx="150" cy="70" r="12" fill="#50E3C2" stroke="#fff" stroke-width="2"/>
  <text x="150" y="74" font-size="10" text-anchor="middle" fill="#fff">2</text>
  <circle cx="30" cy="110" r="12" fill="#50E3C2" stroke="#fff" stroke-width="2"/>
  <text x="30" y="114" font-size="10" text-anchor="middle" fill="#fff">3</text>
  <circle cx="70" cy="110" r="12" fill="#50E3C2" stroke="#fff" stroke-width="2"/>
  <text x="70" y="114" font-size="10" text-anchor="middle" fill="#fff">4</text>
  <circle cx="130" cy="110" r="12" fill="#50E3C2" stroke="#fff" stroke-width="2"/>
  <text x="130" y="114" font-size="10" text-anchor="middle" fill="#fff">5</text>
  <circle cx="170" cy="110" r="12" fill="#50E3C2" stroke="#fff" stroke-width="2"/>
  <text x="170" y="114" font-size="10" text-anchor="middle" fill="#fff">6</text>
</svg>

